<svg xmlns="http://www.w3.org/2000/svg" viewBox="0 0 1200 675" role="img" aria-labelledby="title desc">
  <title id="title">Bactoflow WGS pipeline</title>
  <desc id="desc">A bacterial whole-genome sequencing workflow from reads to reports and phylogeny.</desc>
  <defs>
    <linearGradient id="bg" x1="0" x2="1" y1="0" y2="1">
      <stop offset="0" stop-color="#07140f"/>
      <stop offset="1" stop-color="#111827"/>
    </linearGradient>
    <linearGradient id="node" x1="0" x2="1">
      <stop offset="0" stop-color="#16a34a"/>
      <stop offset="1" stop-color="#22c55e"/>
    </linearGradient>
  </defs>
  <rect width="1200" height="675" fill="url(#bg)"/>
  <text x="70" y="88" fill="#f8fafc" font-family="Montserrat, Arial, sans-serif" font-size="44" font-weight="800">Bactoflow-WGS</text>
  <text x="72" y="128" fill="#9ca3af" font-family="Inter, Arial, sans-serif" font-size="22">Snakemake pipeline from bacterial reads to comparative genomics</text>
  <g opacity="0.15" fill="none" stroke="#22c55e" stroke-width="2">
    <circle cx="1030" cy="164" r="88"/>
    <circle cx="1030" cy="164" r="54"/>
    <path d="M120 578 C230 420 352 612 462 458 S720 312 1098 512"/>
  </g>
  <g font-family="Inter, Arial, sans-serif" font-size="18" font-weight="800">
    <g transform="translate(80 250)">
      <rect width="160" height="90" rx="18" fill="#111827" stroke="#334155"/>
      <text x="28" y="38" fill="#f8fafc">Raw reads</text>
      <text x="28" y="65" fill="#22c55e" font-size="15">Illumina / ONT</text>
    </g>
    <g transform="translate(292 180)">
      <rect width="168" height="90" rx="18" fill="#111827" stroke="#334155"/>
      <text x="28" y="38" fill="#f8fafc">QC</text>
      <text x="28" y="65" fill="#22c55e" font-size="15">fastp + MultiQC</text>
    </g>
    <g transform="translate(292 348)">
      <rect width="168" height="90" rx="18" fill="#111827" stroke="#334155"/>
      <text x="28" y="38" fill="#f8fafc">Assembly</text>
      <text x="28" y="65" fill="#22c55e" font-size="15">SPAdes / Unicycler</text>
    </g>
    <g transform="translate(520 250)">
      <rect width="174" height="90" rx="18" fill="url(#node)"/>
      <text x="28" y="38" fill="#06120a">Polishing + QC</text>
      <text x="28" y="65" fill="#06120a" font-size="15">Pilon / QUAST / BUSCO</text>
    </g>
    <g transform="translate(754 180)">
      <rect width="166" height="90" rx="18" fill="#111827" stroke="#334155"/>
      <text x="28" y="38" fill="#f8fafc">Annotation</text>
      <text x="28" y="65" fill="#22c55e" font-size="15">Bakta GFF3</text>
    </g>
    <g transform="translate(754 348)">
      <rect width="166" height="90" rx="18" fill="#111827" stroke="#334155"/>
      <text x="28" y="38" fill="#f8fafc">Screening</text>
      <text x="28" y="65" fill="#22c55e" font-size="15">MLST / AMR / plasmids</text>
    </g>
    <g transform="translate(980 250)">
      <rect width="150" height="90" rx="18" fill="#111827" stroke="#22c55e"/>
      <text x="28" y="38" fill="#f8fafc">Reports</text>
      <text x="28" y="65" fill="#22c55e" font-size="15">Tree + Excel</text>
    </g>
  </g>
  <g stroke="#22c55e" stroke-width="4" stroke-linecap="round" fill="none">
    <path d="M240 295 C260 295 266 225 292 225"/>
    <path d="M240 295 C260 295 266 393 292 393"/>
    <path d="M460 225 C500 225 492 276 520 286"/>
    <path d="M460 393 C500 393 492 316 520 306"/>
    <path d="M694 295 C724 295 724 225 754 225"/>
    <path d="M694 295 C724 295 724 393 754 393"/>
    <path d="M920 225 C948 225 948 284 980 292"/>
    <path d="M920 393 C948 393 948 316 980 304"/>
  </g>
</svg>
